/* XPM */
static char *fc41cce78b3a4ee9a4d7ba483f2c96c3XeMGFZf6xqEgDSXq[] = {
/* columns rows colors chars-per-pixel */
"64 64 166 2 ",
"   c #17140B",
".  c #1A160D",
"X  c #1E190F",
"o  c #1B1611",
"O  c #1D1A12",
"+  c #211A0F",
"@  c #221D13",
"#  c #241F18",
"$  c #252116",
"%  c #292316",
"&  c #26231A",
"*  c #2A251B",
"=  c #2E291D",
"-  c #312B1E",
";  c #2A2721",
":  c #2E2A22",
">  c #332D22",
",  c #302F2B",
"<  c #363125",
"1  c #393326",
"2  c #35332B",
"3  c #3B352A",
"4  c #3E392D",
"5  c #373631",
"6  c #393631",
"7  c #3D3A34",
"8  c #3F3E39",
"9  c #423B2E",
"0  c #443D32",
"q  c #413E39",
"w  c #464134",
"e  c #4A4336",
"r  c #44423D",
"t  c #4C453A",
"y  c #4E493D",
"u  c #50473B",
"i  c #524B3D",
"p  c #464541",
"a  c #494741",
"s  c #4C4A45",
"d  c #4E4D49",
"f  c #534D43",
"g  c #594F41",
"h  c #514E49",
"j  c #565145",
"k  c #5A5345",
"l  c #54524C",
"z  c #5B554B",
"x  c #5E594D",
"c  c #575551",
"v  c #595651",
"b  c #5C5A54",
"n  c #5E5D59",
"m  c #605647",
"M  c #625947",
"N  c #60574A",
"B  c #635B4D",
"V  c #685F4E",
"C  c #635D54",
"Z  c #695E52",
"A  c #615E59",
"S  c #666155",
"D  c #6B6355",
"F  c #64625C",
"G  c #6C655B",
"H  c #6E695D",
"J  c #726856",
"K  c #71675A",
"L  c #736B5D",
"P  c #796E5F",
"I  c #666561",
"U  c #6A6661",
"Y  c #6D6A64",
"T  c #6F6D69",
"R  c #746D62",
"E  c #796E62",
"W  c #726E69",
"Q  c #767164",
"!  c #7B7265",
"~  c #74716B",
"^  c #7D766B",
"/  c #7E796D",
"(  c #787671",
")  c #7D7A74",
"_  c #817667",
"`  c #817867",
"'  c #81776A",
"]  c #837A6D",
"[  c #897E6E",
"{  c #847D72",
"}  c #887F72",
"|  c #847F79",
" . c #8B816F",
".. c #868075",
"X. c #8B8275",
"o. c #85827D",
"O. c #8C857A",
"+. c #8E897D",
"@. c #918676",
"#. c #928877",
"$. c #90867A",
"%. c #938A7D",
"&. c #988E7F",
"*. c #8C8781",
"=. c #8E8A83",
"-. c #948D82",
";. c #988E82",
":. c #938F89",
">. c #979185",
",. c #979084",
"<. c #999083",
"1. c #999184",
"2. c #9B9284",
"3. c #9B9186",
"4. c #999286",
"5. c #9B9386",
"6. c #9D9387",
"7. c #9D9386",
"8. c #9E9487",
"9. c #9A9286",
"0. c #97938B",
"q. c #9D9388",
"w. c #9B9589",
"e. c #9F9589",
"r. c #9D978A",
"t. c #9E978D",
"y. c #9C958A",
"u. c #9F988E",
"i. c #9F988D",
"p. c #9F9991",
"a. c #A09687",
"s. c #A1978A",
"d. c #A0968A",
"f. c #A3988A",
"g. c #A2988D",
"h. c #A3998D",
"j. c #A19A8F",
"k. c #A59B8D",
"l. c #A59B8F",
"z. c #A69C8F",
"x. c #A19A8E",
"c. c #A59B90",
"v. c #A39C90",
"b. c #A39D92",
"n. c #A69C90",
"m. c #A59D92",
"M. c #A49E93",
"N. c #A39C92",
"B. c #A6A095",
"V. c #A8A197",
"C. c #A9A297",
"Z. c #ABA296",
"A. c #ABA297",
"S. c #ABA397",
"D. c #A9A397",
"F. c #A6A098",
"G. c #ABA599",
"H. c #ABA59A",
"J. c #AEA89C",
"K. c #B0A699",
"L. c #B2ABA1",
"P. c #B5AFA3",
"I. c #BAB0A4",
"U. c #BBB5A9",
"Y. c #C1B7AB",
"T. c #C3B8AC",
/* pixels */
"V.j.j.L.V.X.X.V.U.l.[ @.@.K.,.$ y ' D i D ! L $.$.' 4.X.^ u 1 G { { { -.O.4.' H E , r 6 5 5 0 e j v h Y x $ s I l l A I F Y v l ",
"t.b.G.V.b.%.;.M.%.#.#.f.T.Y.4.$ f $.L E X.X.X.` X.j.V.%.^ t 3 R Q / ! -.....{ L L 7 l h 5 r s k h n s C z @ s U n n l W C z z f ",
"u.-.w.M.q.-.O.E [ %.l.j.j.I.$.- f ] ! ] P L -.j.7.} $...-.g 0 ^ O...^ { { L D L D 9 8 l v s h s j F D b h * 8 s v F G W H / / O.",
"-.j.4.>.r.{ ] ] 8.4.M.r.$.$.K 3 t ;.O.] %.] ;.c.X.E q.7.7.B = R ^ / ] { ] E D G L 3 O 2 b s f B z x L D t , a b h l b h Y ^ H Y ",
"E ] ' ] L K L B B z %.j.%.<.D 9 e ] ..;.s.7.' X.z.$.%.X.k 0 * R O.] R G D ! ^ G Z 3 ; 2 h W D R h e f f e 1 r A r s v h F C C H ",
"> - $ = = - - 3 e 3 u L ! Z t u > 3 k D t V D Z V k 9 1 > 9 4 0 C D j 9 0 z G g e u 0 1 ; 2 7 e 1 X @ * 3 4 * & * 2 2 2 ; & 2 1 ",
"3 1 3 - * = * & = * X + > 1 i B e > @ X @ X O O   X % > y k f > $ & # 2 0 e 0 2 4 N x 0 , O O . * e w e Z S k t r 0 3 > = > = * ",
"D ! E L L G i > = - 3 u X.-.-.v.;.} ^ E ! ] L 0 1 e e e z z z v y s s s p a l j C G U l l e 1 3 0 Z Q R +.^ G ~ Y Y / { ^ D D y ",
"+.O.-.4.{ X.4.^ 1 - k ] t.w.-.4.j.4.;.4.-.j.+.] S k 0 r s r a l a 8 7 r 8 6 a b b n l h l n r 0 0 U ) Y Y l h F W A F Y F Y / g ",
"t.-.v.;...-.-.O.k 9 Q t...{ %.{ u.j.{ X.-.O...O.+.D e a d p d s h d 5 2 8 8 l F c a c j h s s 3 7 n l c n A c I T F F Y ( W ] Z ",
"t...+.;.>.X.-.w.L t / { +.+.-.>.r.O.$.,.+.O.-.4.w./ 0 r 8 p p 8 p s s 7 5 r v n l p v l l s h 3 r A n v v U v F F U ~ | =.| -.g ",
"{ 4.O.;.O./ ..-.-.3 N L 5.b.w.r...O.-.4...%.O...w.L 2 s p p r r 2 , p p p s a l s 8 p s v v j 3 s C U W n v U F A A T o.:.p.-.t ",
"{ { { 4.+.....O.-.t N ! / -.-.$.4.7.X.r.4.j.b.O.u./ 2 8 r q 2 8 8 2 r r l s 7 p s r 2 8 q l f * 0 j C ) G F U v c A n Y | { ^ 0 ",
"O.;.-.{ ] { O.w.r.t g %.^ ] } ..,.-.r.i.;.O.4.4.4..., 7 8 r 8 7 8 r s r 7 7 r 8 r d q r s s q * r E l G ^ n n I n F W { { %.Z 4 ",
"-.>.+.^ +.{ { ..E 3 t ' ] ! } ] } %.%.<.;.-.;.8.O.B & d l p p 7 8 s d r 5 7 s s l v l s 8 s r = 0 E H G C F ~ ~ F b ~ O.-.^ N e ",
"O.E ..4.%.X.! D g > > Z ! ! ] ..' $.M.%.X.O.] D k e = q h r r r a 5 2 8 a r q r h z s s v 6 2 9 , y r 7 y z h b F G G ^ { D t 4 ",
"t > k z e 1 > > > e 1 % 4 9 e g 1 1 u B B t e u 4 1 4 ; : ; * > ; & 5 : 2 * & $ = 3 2 2 2 > e e 4 $ X O   . . . O * & 1 e u e 4 ",
"@ . . @ * - 1 V E K Z N e 0 y 3 1 > . . @ @ @ 1 f z k z f e 0 r r > O . O * & - 3 = = 3 i D B k k g j e 3 - < = # O $ > 1 e f u ",
"D u 0 g B { ;.j.u.4.u.b.v.v.w.j.;.] k 3 9 0 k F F Y F I n F A s c h 3 > 1 9 u  .] ' L L ] u.V.M.j.w.+.<.;.u 3 1 9 f z F R G C W ",
"E _ B 9 L 4.-.O.O.,.M.w.p.M.w.v.V.V...e 9 e n l d l l l d d p r s l b 0 9 1 t O.O.] Q Q L ..j.4...>.4.t.-.B w > h C l l F F A l ",
"^ -.D 3 { -.{ O.j.+.4.-.-.t.4.4.O.b.>.g 0 y d l s s l d n l d v h s l j 1 3 H ..%.] { +./ { -.+...O.4.-.X.! u 7 h d r s F A A n ",
"/ O.Z e O.w.+.=.t.-.;.t.>.-.%.M.u.t.r.Z 4 h s r 7 5 s s n n n n n v l h 3 k %.] E { { { ..r.t.w.w.>.O.O.r.$.0 r v p a r l j s s ",
"^ { L 9 { 4.-.-.+...>.>.O.-.+.4.w.b.v.B 1 r r s s 2 8 d r a s d v F v z 0 L -.%.] u.%.r.u.r...4.t.w.b.u.%.' > r d 8 s s s s n v ",
"....B 3 %.O.+.-.O.V.5.! ^ 4.;.+.b.u.%.k * 7 p v d r 7 p r 8 8 s d l n C 0 G ] X.-.4...+.O.-.4.v.4.w.w.V.r.D 4 r n l d j n v l n ",
"^ %.k t +.;.j.v.;.4...-.r.-.4.-.O...z.L > a s 2 r s r l v p r a a h l j < D %.%.j.{ L ! O.>.-.b.w.4.{ $.j.V 1 r l l n n v n v v ",
"R ! k > { H.M.V.r.! O.b.w...>.-.w.G.r.i 4 7 d 7 2 d v s d d d d r r r y > S B.X.! ] E ! O.V.>.u.r.] %.<.@.i 3 7 a d s h r d h d ",
"e 1 4 1 g B z B K ^ } ! / G ' %.%.%.L u 3 2 l h r a n 8 2 7 r d 6 2 e 7 > f ] E B u E ! ! X.4.X.L L ' ! B 0 e 2 j s r s r h n A ",
"@ 1 9 i 4 @ % % @ - > * O @ & e e 3 0 k f > = > 1 & o O O O O O * > > 4 e = $ * @ O $ # * = 1 - $ - % % - w e > 3 > , O O ; 6 2 ",
"E ..O.....Q ' L D t 1 > > - = e ^ / ..O./ / ! E G D y e 1 & & = t j b z s l f f z h y 4 $ $ * 4 k k B D E G D G g y g g 0 1 * * ",
"M.>.F.M.0.-.v.A.b.%.%.' e 0 H { O./ O.=.O.:.-.0.r.j.-.4.$.t 4 e z F v s a l n l v v n b j w e B ' k N ' $.D E } $.D ! a.X.' K e ",
"b.M.+.+.O.O.O.t.H.V.b.>.t f O.R G ^ o.) *.;.-.>.O.-.%.-.j.k 9 C n d l s s s r s l l c l W u u X.E ! K D X.' E V ! } ' $.l.X.L t ",
"..-.-.{ o.=.+.G.V.M.M.b.x y ..R ^ ) | { 4.%.^ O.-.;.4.r.>.B 3 l v a 5 r h n h s n c l v h t e %.X.Q { Z K E L V ! %.E ! $.s...t ",
"y.+.;.Q ^ | -.w.4.X.O.r.G j { ! Q O.| / / ..] { v.t.>.%.-.B 4 h s a a s a h l c c l h h l f 0 +.O.' E E ' ] } L ! -.' ] X.<.O.k ",
"/ ! { -.=.-.O.+.O.] -.-.D f / / / O./ D { { ^ O...X.{ O.%.B 0 l r 8 q s p d h v l s v s A f 0 E Q ! ! { ..-.5.%.%.5.r.$.X.%.8.B ",
"..O.{ 0.0.-.+.-.>.-.4.w.k 4 O.{ { / -.+...-.;.-...+.X.-.%.N 7 a 6 r 7 8 p d r a z s v l h e 1 D ! D L ..] $.^ X.;.' 8.%.<.j.%.9 ",
"+...{ O.-.{ 4.r.-.i.V.X.y t O...G ! ! R ..O.-.-.-.%.%.-.! g 3 r r q r d r s s q r j z j y > = x { ^ E ' X.{ -.s.s.X.] <.&.@.P 0 ",
"E { ] R G V m D { L D u 9 t j z ! ' ! L ! / / O.%.r.' } Z w 4 < : r h r 2 0 0 4 r r 2 3 4 9 3 1 D z 3 u K $...X.! ! k ' K m t 3 ",
"> = * $ 1 w e = * 1 e y z k 9 0 1 1 9 3 ; 1 4 0 4 4 3 3 e z u t t 0 > > > @ = > $ * > > 4 i B 0 3 3 1 1 1 0 9 $ > - % = = % 9 e ",
"] ! g w 3 = i B ' %.z.-.%.5.,.r.>.] ! D 9 > 1 > 3 0 f z F F n F F F z C D e 9 i D j ! { { X.{ $.X.^ ' ] ! g 0 0 4 w t e g z R D ",
";.$.$.V g G / O.v.r.i.w.w.-.4.V.j.4.r.2.D 9 e u f l v F I l s l d s n l n k 9 K %.] O.w.%.-.;.>.' %.5.4.' ' k k C f z z F F ^ ) ",
"%.>.u.B t ] %.O.j.P.b.;.4.4.H.H.7.s.;.j.L 4 0 a 7 a l r r q q s l c n v A t t { %.-.w.u.u.%.O.^ -.%.%.j.%.%.j f v l l U A v A n ",
"-.u.-.B z 4.-.O.>.i.u.t.4.4.M.u.G.V.s.r.E e r s c h s a d l d a s v A v U j 4 +.-...r.j.-...O.{ j.J.M.-.-.-.k f l d s n I Y Y Y ",
"+.-...k f -.>.4.^ { -.^ ] ....O.4.+.H.G.E e a n v l a d r r d h a r d s x t i +.+.4.j.>.{ ] >.....r.$.X.%.,.y r l l d d v F F Y ",
"w.-.i.B f w.u.M.4.+...w.+./ { -.{ ^ -.M.] 4 a s a a r r s 7 r a r a r l z e S r.-.+.>.>.+.w.>.+.%.%.-.8.<.^ 0 y A p l l l a l F ",
"%.-.>.z t ..r.4.t.O.{ ^ ..{ O.u.4.r.%.-.' 0 s h C l d d a l s a a d j l z 4 f O.4.{ ! %.O...] +.] O.,.-.-.E t 3 0 r a l d l v l ",
"O.4.{ u e B ] ..^ ' ! ] ! { %.{ ..4.r.%.{ 1 0 q h l s a v l a h d l h z z : y O.O./ Q ] ^ O.4.O.' ] %.i.8.^ 0 1 7 h d a s h z b ",
"O.X.! 0 u t ' K k D ' } +.-.^ E L X.O.%.V = , r 8 s v h l a l n z z s f w > 4 G L ' X...X.E ' ' X.{ K V J L 4 > f s e r v s C f ",
"0 > < e u 9 e e 0 0 0 g e t t g S z g z e 0 9 > > > 2 ; & ; 2 2 4 , ; 1 3 9 1 * > 0 u B j > 9 B D B g m g 9 t 4 = 1 > = 4 j s 7 ",
"i B D G E G B u i i 3 > > & & & = 9 0 w j D D z z u 9 > = & $ = 1 0 w e k g g k t 0 3 - = = & O @ @ = w t u j j 1 1 1 = @ O O @ ",
"X.j.r.4.4.{ O.$.O.7.] e t t b H C z U F W Y U F n ~ W G j 0 e D ! ' r.{ ] ] Z Z ] ' X.} D i e 1 0 z z B L E R ^ ! D C D C z w 3 ",
"O.O.4.-.%.] O.-.4.j.%.B e s W A I v h v n v v l s v n A h 3 g { L L ..} ' ! D Z { O.E ,.O.! e e s F F W G C / ] ^ H R ..R ^ L e ",
"-.-.>.-.O.O.+.O.4.-.a.V 0 b W A A A v n v c l n n b n Y j 3 k -.{ ] X.! D X.K ^ s.] L } O.8.N t v l l z C C H / / S D { R R / k ",
">.>.-.......{ O.O.O.;.Z 1 C A r h l l l l l v l l l A U f e x -.} -.4.} %.] L K { E ' ^ { O.B e F F a l z G H ^ W C H ^ x R / g ",
"O.] ..-.+.-.-.+.{ X.8.G 3 h l A A v Y l l A n l v n A ~ S u B K ! ! ! ;.-.-.r.! ] D K %.O.<.k t F A n n n b H G S C k C G ^ G t ",
"{ O.O.] ] L ^ $.X.X.D i 1 j ~ G n h v l l l d v n U F Y S 4 Z ] E k P K D %.$.] ] ! ! ' E ' w 0 C s d l A v C F D S S Q D C G e ",
"..-.....O.^ ! X._ E D i 3 t j a j r h s h s v A n W W z t 0 z [ K ! %.X.} ] ] -...' ..X.! L e e S C s F n n z j H R S ] ..L L t ",
"%.%.{ O.-.4.%.] X.' E i g 9 s s h s n b z v b C G G b y f 0 0 ! O.] X.-.q.{ ] X...l.r.%.%.B 1 0 x F F j z U z x D Q H { G z w e ",
"z g 4 1 t t u 9 t t e k k 9 ; * = 3 1 1 4 3 7 1 0 0 e 3 3 k u 1 g k D D L L K L K ' ! k k i t > , r j y e z b y z j j f 0 y 9 e ",
"9 9 1 < * $ > 1 1 t g B K K V B B t t e e - 1 9 4 9 e N k k D z t 9 1 * - = * 3 9 - 9 t i N z i 4 1 * = * & & $ > = > t k u t k ",
"K L ' X.! e e u D E } <.{ ] %.%.r.4.O.O.X.D i f b x F b l s j Y F b G D x e 0 0 z G D R / { ../ { H G L L k 1 > x S H C z C R H ",
"..O.X.{ X.D w H %.%.-.4.] ! ;.s.M.8.;.-.<.! t f c c l r s d p v a q a z h h e H O.^ O.! H / { / ..O./ O.-.{ t z R G n A I A F A ",
"{ ] { ! $.X.y E %.X.^ ! %.%.r.l.j.s.-.$.%.! 9 h l r d r a s a a s r r h v n 0 / ;...+.-.{ { O...%.%.4.r.-.^ 4 C A h s l A A v l ",
"{ ] $.] L L 9 Z %.] ] ] -.j.i.;.%.$.[ X.<.R 7 v l 8 r p q 8 8 a n h a d l j 0 O.t.w...5.4.$.X...{ ..X.X.O.D > s C a d s s l r h ",
"L ! { } P V 9 k O.X.X.' ! %.8.&.$.} X.4.l.] 0 l d s s p s s s s r a s q h j 0 ! >.j.u.4.r.%...O.! ' ^ X.X.G 2 a F s r h l a r v "
};
