/* XPM */
static char *_21196f6847b423df4a4803676487f5fOM5hcgbPUwBREldm[] = {
/* columns rows colors chars-per-pixel */
"64 64 193 2 ",
"   c #060201",
".  c #0A0502",
"X  c #0D0905",
"o  c #0E0B09",
"O  c #100701",
"+  c #120B05",
"@  c #140E0A",
"#  c #180F09",
"$  c #151006",
"%  c #1B1207",
"&  c #16110B",
"*  c #1B140C",
"=  c #1E180E",
"-  c #151410",
";  c #1B1611",
":  c #1E1A14",
">  c #1E1C19",
",  c #231607",
"<  c #21160E",
"1  c #24190E",
"2  c #291B0F",
"3  c #221710",
"4  c #241B13",
"5  c #2B1D13",
"6  c #221E19",
"7  c #291E19",
"8  c #301F13",
"9  c #2F210D",
"0  c #262015",
"q  c #2C2215",
"w  c #25211B",
"e  c #2B241C",
"r  c #2E291E",
"t  c #332216",
"y  c #392516",
"u  c #362916",
"i  c #3A2B16",
"p  c #332419",
"a  c #3A261A",
"s  c #342A1D",
"d  c #3B2C1B",
"f  c #3E311D",
"g  c #272520",
"h  c #2B2621",
"j  c #2E2922",
"k  c #2F2D28",
"l  c #332C23",
"z  c #3A2E22",
"x  c #342F29",
"c  c #363026",
"v  c #3B3224",
"b  c #36312A",
"n  c #3B342B",
"m  c #3E382C",
"M  c #3F3931",
"N  c #402717",
"B  c #422C1A",
"V  c #443016",
"C  c #43321D",
"Z  c #49361D",
"A  c #4D391F",
"S  c #402F22",
"D  c #423524",
"F  c #4A3621",
"G  c #463826",
"H  c #4C3A24",
"J  c #413629",
"K  c #473B2A",
"L  c #433A2C",
"P  c #463A2E",
"I  c #4B3D2B",
"U  c #4B3D2C",
"Y  c #523D24",
"T  c #513E29",
"R  c #513F2C",
"E  c #423B31",
"W  c #433C32",
"Q  c #443C32",
"!  c #443E34",
"~  c #493F31",
"^  c #4D412E",
"/  c #544227",
"(  c #5A4325",
")  c #53422D",
"_  c #5B462C",
"`  c #58482F",
"'  c #5D492E",
"]  c #4A4133",
"[  c #4C4133",
"{  c #4A4235",
"}  c #4E4335",
"|  c #47423B",
" . c #494239",
".. c #4E4438",
"X. c #4F483E",
"o. c #544330",
"O. c #534432",
"+. c #524635",
"@. c #594632",
"#. c #574934",
"$. c #554937",
"%. c #5A4830",
"&. c #5C4A33",
"*. c #594A35",
"=. c #5E4E37",
"-. c #534838",
";. c #574A39",
":. c #594B39",
">. c #5B4D3B",
",. c #5E503E",
"<. c #60472B",
"1. c #624B2E",
"2. c #6C4E2D",
"3. c #6C512F",
"4. c #624D33",
"5. c #624F39",
"6. c #665035",
"7. c #6B5335",
"8. c #625039",
"9. c #65523A",
"0. c #65523B",
"q. c #6B553B",
"w. c #6D593D",
"e. c #705534",
"r. c #755A36",
"t. c #795B35",
"y. c #72573A",
"u. c #735B3C",
"i. c #795E3C",
"p. c #7D613B",
"a. c #5A4F40",
"s. c #5B5141",
"d. c #635540",
"f. c #635542",
"g. c #695742",
"h. c #675841",
"j. c #6C5A43",
"k. c #655748",
"l. c #6C5D4B",
"z. c #725D42",
"x. c #795F42",
"c. c #705F49",
"v. c #766144",
"b. c #7B6344",
"n. c #76624A",
"m. c #7B654A",
"M. c #7E694D",
"N. c #736450",
"B. c #7A6651",
"V. c #776853",
"C. c #7E6B52",
"Z. c #7F6E59",
"A. c #83653D",
"S. c #87683B",
"D. c #816643",
"F. c #856945",
"G. c #8B6D44",
"H. c #846B4C",
"J. c #8A6F4C",
"K. c #8C714D",
"L. c #917146",
"P. c #92744C",
"I. c #97794F",
"U. c #997B4F",
"Y. c #846D52",
"T. c #886F50",
"R. c #877153",
"E. c #8C7353",
"W. c #8D765A",
"Q. c #8E795A",
"!. c #927654",
"~. c #947954",
"^. c #9B7B53",
"/. c #92775A",
"(. c #947B5C",
"). c #9A7E5B",
"_. c #947D60",
"`. c #997F61",
"'. c #9D805B",
"]. c #968061",
"[. c #9B8364",
"{. c #9F8867",
"}. c #978268",
"|. c #9A8568",
" X c #A18666",
".X c #A48865",
"XX c #A88861",
"oX c #A08568",
"OX c #A48C6D",
"+X c #A98F6D",
"@X c #AE926D",
"#X c #A08C71",
"$X c #AB9171",
/* pixels */
"J ..c l w w c n m P 6 & j c h l h 6 e s.O.v d p l l e e j l c w c h 6 l k k w h j g w l m n n n Q P 4 * * o & l n l e > @ o o o ",
"m n e l h 6 e c P 8.v } E e l l e 6 s +.:.D :.=.P ! ] { L m E m l c =.m l h h h e 6 s f.} P ~ L c n l 0 % q n [ J v 0 @ . X @ : ",
"j 6 6 w ; : h h 6 e U ] m n l 6 e l l l l s w v J Q c m n n m h w l *.m e h h w w w m #.+.;.-.P L m Q l d ^ m m { ! m s 4 s n c ",
"6 6 h 6 : w w 6 x h e 0 0 l e w w : e z c c l K ` q & * & + O @ = 4 =.v : 1 4 = 6 6 4 1 s v l s 6 6 0 * D s e 4 0 0 6 = d l h : ",
"h j h w e h h h j w q p p 0 * $ d K I G u p q 8.9.D D q v *.K I o.g.9.*.8.K D d q t ) R f 1 % q s 0 % v ;.~ L n h * 1 0 l w - > ",
"e w w w w 6 w w h w e ,.f.V.D q k.=.j.C.&.n.M.m.9.n.W.9.}.}.R.Q.(.|.#X_.&.j.j.&.) j.n.v.j.f D G P v [ a.m l w w h h l z l > > : ",
"6 w h h > 6 6 6 w ; 1 q s d d ^ u d *.u 9.].b.R.K.(.(.z.B.R.H.n.T.H.W.M.4.}.].W.M.&.u d K c.g.O.C u U L m L c e w > h s e > : g ",
"$ 4 0 + @ = & @ & X 1 u u f s ` ` j.l.f.4.m.R.!.E.Q.{.m.m.[.W.M.H.J.E.m.v.(.w.M.H.R.Y.) @.=.O.U K ` I n l l c l h l h 6 6 : > w ",
"e l l 4 e v v e e c n L L s *.B.Z.n.l.k.@.Y.W.H.m.E.`.H.w.R.W.R.T.!.Q.4.m.W.W.m.H.K.m.%.&.g.h.n.C.q.D 5 4 0 e 6 6 * X = e w > w ",
"w w j x c 4 v c c h w l x l #.k.N.n.m.c.4.q.H.z.q.D.).m.j.[.(.H.R.oX(.` Y.).J.w.b.!.Y.) (.W.Q.R.H.Y.) f 2 1 4 0 1 1 0 n n * @ & ",
"e w e e w : w h 6 h h j x j d :.c.c.v.z.z.m.R.Y.j.y.i.9.j.H.m.E.'.[.m.T v.i.!.T.F.J.w.w.W.H.J.y.J.H.D D 9.k.v G I L n c m l e 0 ",
"w 6 w > w e * 6 w h l h w 6 G j.Y.z.m.q.m.H *.C d D u d 5 C i d d u , % 9 _ 6.( _ 1.H q.y.T.7.u.m._ d &.[ n e D s h l l l l b h ",
"w w 6 6 w 6 = 6 w : = & + p *.#.@.p q 2 2 + O + + @ O O . O O .     . . O + O @ @ O + % 2 2 2 w.' ) 9.` D m } O.s 0 h h w 6 : = ",
"6 e : : w & s [ m K K 0 l } P c L *       . . .                           . .           .   I OX[.OX_.K D P v c s d 5 * = = * e ",
"& + o @ = 4 I D s v z v Q n h l Q 6         . . . . . X X X + O + + + @ @ + + O + X . . .   9.OXJ.K.(.m.T d u d U O.v u ~ ! n Q ",
"l 0 0 l m n l l l ~ s l m c c l n :     . . . . X X + + + X + + + + + @ + + + + + + X X X . z.E.F.L.J.(.Y.I *.n.l.>.+.u m | M W ",
"l 0 p e 6 > w k h n c s c n l c m 6   X X       . . . . X . . . . X X X X . . X X X   X @ + n..X~.I.J.M.W.@.9.k.,.>.+.e l n  .b ",
"Q l e w > g h j l h w v c l c c b 6   X @ X + o @ @ @ & * & & @ @ * & * & # & & = * + @ & & T.@XG.U.J.W.H.) d +.#.D q 0 n h 0 h ",
"n l 6 e h x j n c x w q l j x h x : . + @ X @ @ & & & * < & * * & * = < = * * * < < * * & = R.E.E.P.F.T.b.9.y q 4 0 u u 0 = w 6 ",
"$ X 1 0 6 e 6 6 6 w : n l h w e r : X + & @ @ * * ; < 3 4 3 = < = = < 3 = * = * < < * & = 5 R.D.P.F.H.7.4.F *.) z U P U D q = = ",
"& * z z * = 3 4 4 4 s U P m l m 6 @ @ @ & @ * < = < 4 5 5 4 1 < < 3 3 5 5 1 3 < 3 3 * = < q u.u.y.4.9.%.H D K D ) L [ J U U q l ",
"n n m } L z } K v l { E ! Q l !  .e + @ & @ * 1 3 4 5 t 5 4 3 1 2 3 4 5 5 4 3 3 5 5 < = 1 5 (.@X!.E.R.(.).K.J.5.f K K v U v e n ",
"j j b c n l w l m  .M n x h l m m 6 @ * & @ * 3 = 3 t t t 5 3 3 4 5 3 y 5 q 4 5 5 5 3 < 4 p (.'.A.H.D.P.^.A.b.q.p q < = q 0 s 0 ",
"w h w : e w : c m l e l l l x m n 6 X & & @ * 1 < 4 y t t 5 5 4 5 5 6 y 5 t q 5 5 5 < 1 5 p (.^.I.J.D.F.G.F.H.z.I D L J ] ! } c ",
"h h 6 h 6 & ; l n l n E n b M W n 6 @ & & @ < 1 3 5 y t q 5 5 5 5 5 5 d t t t t 8 t < 1 5 q W.^.L.A.P.F.p.J.K.(.) L L c n c c r ",
"l w w h 6 w w l x l h n x b x l b 6 # & & @ < 1 3 5 a a p 5 5 8 8 p 5 a a a p t 8 t < 5 5 p !.K.A.G.~.I.J.J.J.J.) ~ m v c l e l ",
"w w 6 w h h w v h r l c x l b n E 6 @ & * @ < 1 3 5 y t q 5 t t t y q y a d t t y t 3 5 5 z !.I.S.L.G.p.t.t.F.i.d U P d l e c c ",
"& & 6 6 6 6 s ^ 1 & * * * = 6 0 * = * & & @ = < 3 5 y t q 5 5 5 t y p d y a t p y t 3 4 5 d !.F.t.t.t.3.2.i.w.C d ) J v 0 d 0 0 ",
"* * = s D 4 D ^ v l s d u v L c h r ; & * @ = < 3 5 a y q 5 5 5 8 a p d a B t t t t < 5 t a 1.A F H V H _ H 2 d D D s q 0 q 0 4 ",
"0 l l n l l m c l m n z L ] m m X.l & & & # = 1 < 5 y t q 5 t 5 t a y d d B t t t t 3 5 5 s W._.T.W.b.u.v.w.z.9.H f 1 1 1 s d d ",
"6 h w w w j h e h c e 6 ^ m l E L > & & & & 4 1 3 5 t t p 5 t 8 t y t d d d p 5 8 t 3 5 5 d OX[.J.).!._ 4.` F D 4.) G d G g.f.f.",
": 6 w h h h w w h w 6 0 K c M L l * & & & & < 1 3 5 t p p p p 5 a a a B d a p q y a 1 5 5 z OX(.E.K.).w.' ' 7.H.R.M.Y.) ) w.=.>.",
"& : 6 e w 6 j c l n m m D m m l w ; & & & @ < < 3 5 t y t y p 5 a a d a a y t p a t 3 5 q z [. X(.E..Xy.7.~.XXK.J.b.b.7.H *.=.#.",
"0 e * ; & w e w h l l e K c l c m > @ * @ @ = = 3 5 p a t t 5 q a y a d y t t 5 t 5 3 5 t p (.+X~.!.).u.6.'.F.A.b.y.b.' d ) @.d ",
"P P l 0 e 0 * * 4 4 1 D ) e l l l ; @ & & @ * = 3 5 t t q q 5 8 a d y B B t t q 5 8 3 5 t s W.!.^.J.).z.1.2.( y.7.v.b.H u d 5 q ",
"w e e h c c l v K ^ D O.^ [ d 4 * & & & & @ = < 5 4 t t 5 p t 5 t a p d B y t t t 5 < 5 t y W.@X^.~.~.q.1.i.J.H.' ' 4.d F 6.&.v ",
"6 w > 6 6 w 0 K U U } m n ! J E ! 6 # & @ @ = 1 4 5 8 t t t t t t y p d B a t 5 t q < 5 t G m.1.7.D.7./ 4.1./ Z F Y H d H ' ( D ",
"e w w w h h 6 K >.! n l s l l l E 6 @ * @ @ = < 3 5 5 t y t t 5 y y p d N t 5 4 5 7 = 5 t S (.W.T.W.W.(.W.R.M.n.4.6.z.z.n.T d D ",
"6 w 6 w h ; : D L m n e r e e l m : @ @ @ @ = < < 5 t t y t t t a y p d t 5 t q 3 ; * 5 8 d }.$X+X[.(.(.(.'.). X6.u.E.J.p.F.' / ",
"w 6 : > : 6 6 n m c l e r l c c l 6 @ @ @ @ = = = 5 t t t y t 5 t p t y t 5 p e = & & 5 5 d (.[.(./.H.x.n.(.~.R./ 7.t.i.A.^.7.F ",
"> w w w e h 6 s l r r e 0 h e e l w @ & @ @ & = = 3 t t t t t 4 5 p 8 y t 8 5 4 = @ & 5 5 z `.).H.E.E./.E.(.!.b.) F.L.7.b.H.D d ",
"> 6 6 : : & = z e e 6 : 6 0 e e l : @ & & @ * = < 4 t 8 8 t t 4 q p t a t t 8 5 1 * ; 5 q d (.[.H.W.!.).).).(.R./ ( Y C F y C T ",
"= * 1 q p d D K u s d 5 q s q e = * & & * # & * < 4 5 5 t t t 4 t p p t y 8 8 5 4 & & 5 t y /.!.b.E.!.H.J.).(.R.) ` 6.4.C ) 8.5.",
"v u P E n ! m ! ] D s u O.J J P L e @ & * @ & * = 3 5 q t q q 3 5 a t t y 8 8 5 5 < = 4 5 p W.XXD.(.R.!.J.b.K.u.F q.r.7.%.Y.9.&.",
"4 s J e h c h e m L e U } l l c Q 6 @ & & @ & * = 3 5 t 8 t t 5 5 y t t t 8 5 5 5 1 < 4 5 d u.( 4.7.' &._ / H F ` H C F ) w.T ) ",
": q J h w e w e l m v c s r l l m w @ @ @ @ * * = 3 5 8 5 5 t 5 5 p 8 t t 5 5 4 5 5 < 4 4 a W.W.x.y.' 4.w.v.H.b.b.z.w.F @.5.9.@.",
"* s s e h w w c z L s p e h l l c w @ @ @ @ & & = 3 4 t 4 5 t 5 5 p t t t 5 5 3 5 5 3 3 1 y |.).^.'.b._ v.b.i.3.r.y.7.D ) ) ) O.",
"p v p 1 * & 4 p 0 * 4 v l l l l n 6 # * @ @ * & * 3 4 8 5 5 t 5 5 5 5 t t 2 5 3 5 2 = 3 3 y W.~.^.G.!.' ' H Z d C t 2 i C u t y ",
"U U [ v q q s s 6 d D v l e s l n 6 @ & + @ * * < < 2 5 5 5 5 5 5 p 5 t 8 2 5 3 5 1 * 3 4 t R.'.p.G.D.y./ 9.v.) ) 9.w.M.n.j.4.D ",
"! c L L s q d v c ~ D 0 w e l l l * @ & @ @ & & = 1 1 5 5 5 8 5 5 p 5 5 5 2 5 3 2 1 = 3 1 t W.).p.7.b.E.4._ / ) n.m.b.m.u.7.z.4.",
"l e l 0 e p D p 0 6 e s q e 0 e : & & * @ @ * & < 3 1 5 5 4 t 5 4 p q 5 2 2 4 4 5 4 = 3 2 q R.'.r.p.J.D.' ' 4.z.F.D.4.' 4.1.6.w.",
"l L e l c 4 d s l s l D v z l e 6 : & * @ @ * & < < 1 5 5 4 5 4 4 p 5 5 2 2 4 4 5 4 = 1 1 p J.~.r.b.i.i.7._ y.' i.4.4.q.q.&.&.H ",
"s s J l w 4 r n h w s e s l e l n : @ & @ @ & * < 1 4 5 4 4 4 4 4 5 4 5 2 1 5 5 5 4 * < 1 p W.G.i.b.i.b.4./ ' C 7.6.4.' H F d y ",
"4 6 z 6 @ 1 w 6 6 w w e 0 : e h l : @ & @ @ & * < 3 4 5 5 3 5 4 4 5 3 4 2 1 5 5 5 3 = 1 1 p y.( <.7.' Y B / F d A C q 2 y p u p ",
": = * & = s w 6 e w w w w w h h h ; X & @ o @ * < < 1 5 3 3 4 5 4 5 3 4 2 1 2 3 3 4 = 1 1 q z.z.z.9.4.' 9.4./ *.C y d f D ^ I I ",
"m z l P v 0 w w 6 6 w w w e l e 6 ; X @ @ o @ @ * = 4 5 1 3 4 2 4 5 3 3 1 1 3 < 1 4 = 1 3 5 T. Xb.x.J.H.M.v.Y.Y.q.G f 9.>.K G I ",
"r 0 s v q : w > : & 6 6 w w 6 6 w * o & + o @ @ & = 1 1 3 3 3 1 1 3 4 4 4 1 3 = < < * 1 3 q R.D.1.r.r.' 4.q.w.q.z.w.f O.I U O.) ",
"1 1 1 < * q = ; & : w 6 6 6 6 6 e & @ & + @ @ & = < < 1 3 3 1 1 1 4 3 4 5 1 1 < < < = 1 1 q D.p.i.D.1.` 4.6.' w.4.Y t d D ) ) D ",
"* % * 1 s d u 0 = = = 4 4 4 4 * $ * @ @ + X @ * = = < 1 3 3 1 < 3 5 3 5 4 1 1 3 < 1 < 2 1 q D.p.r.1.' 7.q.7.4.' _ &.d d K D d D ",
"4 2 e l l e s r e q 4 q d d c s 0 : @ @ & & = 4 3 5 t p p 5 5 5 y p t t p y a y t t 5 5 1 p b.e.e.7.4.q.1._ 1.( ' ' u y q q q 4 ",
"0 0 e w 6 : ; ; w w = e l w : 0 l * o @ & # * = < 4 2 4 5 4 2 2 5 5 2 5 4 2 5 5 5 5 4 4 2 p x.7.( 1.1.7.Y 4.7.Z Y Y p d d s 0 2 ",
"s 4 0 6 ; ; ; 6 6 & 4 e 6 > : 6 6 & @ @ @ @ = < 1 5 5 5 5 4 2 5 3 5 5 5 5 3 3 1 1 1 1 3 3 1 q.3.A Y 4.Y ' 1.H V B C 1 D ) ^ G t ",
"4 = 0 4 * 6 0 6 ; ; = 4 6 6 : w 6 * @ @ * * < 1 4 5 5 5 8 8 8 5 4 5 5 5 5 5 5 5 5 5 2 3 1 3 6.1.Y Y F Z H C d u t 1 2 q 1 1 < q ",
"= * * * 1 4 4 = 6 4 * 4 4 4 w 6 4 * @ @ & & = 1 3 3 3 3 3 4 4 4 5 5 3 4 5 5 p q q q q 5 5 p 4._ Y Z C Y C f i u 1 q f d v 4 = p "
};
